<svg width="286" height="80" viewBox="0 0 286 80" fill="none" xmlns="http://www.w3.org/2000/svg">
<rect width="286" height="80" fill="#171A24"/>
<path d="M21.864 59.584C21.864 62.72 23.912 64.832 27.112 64.832C30.312 64.832 32.36 62.72 32.36 59.584V49.152L38.12 43.392L50.216 62.08C51.624 64.32 52.776 64.832 54.888 64.832C57.384 64.832 60.264 63.68 60.264 59.776C60.264 58.432 59.24 57.088 58.28 55.616L45.544 36.224L56.296 24.896C57.192 24 58.024 22.912 58.024 21.312C58.024 18.624 55.528 17.088 53.032 17.088C51.176 17.088 50.088 18.112 48.872 19.392L32.36 37.568V22.336C32.36 19.2 30.312 17.088 27.112 17.088C23.912 17.088 21.864 19.2 21.864 22.336V59.584ZM65.0365 60.16C65.0365 62.656 66.0605 64.832 69.7085 64.832C73.3565 64.832 74.3805 62.656 74.3805 60.16V34.368C74.3805 31.872 73.3565 29.696 69.7085 29.696C66.0605 29.696 65.0365 31.872 65.0365 34.368V60.16ZM64.8445 21.696C64.8445 24.384 67.0205 26.56 69.7085 26.56C72.3965 26.56 74.5725 24.384 74.5725 21.696C74.5725 19.008 72.3965 16.832 69.7085 16.832C67.0205 16.832 64.8445 19.008 64.8445 21.696ZM80.865 40.128C80.865 46.4 85.089 48.64 90.529 49.984L96.033 51.328C99.361 52.16 101.409 52.544 101.409 54.912C101.409 56.832 99.297 58.304 95.969 58.304C89.057 58.304 88.673 52.544 84.641 52.544C82.017 52.544 80.865 54.4 80.865 56.448C80.865 61.056 87.905 64.832 96.353 64.832C103.393 64.832 110.753 61.312 110.753 53.696C110.753 47.168 104.417 44.928 99.105 43.712L95.201 42.816C92.321 42.176 90.209 41.664 90.209 39.488C90.209 37.504 92.321 36.608 95.585 36.608C101.473 36.608 101.601 40.896 105.249 40.896C107.681 40.896 109.153 38.976 109.153 36.8C109.153 32.512 101.985 29.696 94.881 29.696C88.417 29.696 80.865 32.512 80.865 40.128ZM116.712 60.16C116.712 62.656 117.736 64.832 121.384 64.832C125.032 64.832 126.056 62.656 126.056 60.16V44.608C126.056 40.256 129.256 37.376 132.84 37.376C136.488 37.376 137.96 40.064 137.96 43.392V60.16C137.96 62.656 138.984 64.832 142.632 64.832C146.28 64.832 147.304 62.656 147.304 60.16V44.608C147.304 40.256 150.504 37.376 154.088 37.376C157.736 37.376 159.208 40.064 159.208 43.392V60.16C159.208 62.656 160.232 64.832 163.88 64.832C167.528 64.832 168.552 62.656 168.552 60.16V41.024C168.552 32.64 163.368 29.696 156.904 29.696C151.848 29.696 148.52 31.936 145.896 35.584C144.168 31.168 140.136 29.696 136.936 29.696C132.2 29.696 128.104 31.872 125.672 35.584H125.544V34.368C125.544 31.552 123.88 29.696 121.128 29.696C118.376 29.696 116.712 31.552 116.712 34.368V60.16ZM205.018 49.024C208.154 49.024 209.114 48.192 209.114 44.992C209.114 37.312 202.97 29.696 192.218 29.696C181.146 29.696 174.554 36.992 174.554 47.872C174.554 56 179.482 64.832 192.538 64.832C198.17 64.832 207.194 62.208 207.194 56.576C207.194 54.848 205.594 52.928 203.354 52.928C199.578 52.928 199.578 57.536 192.538 57.536C187.098 57.536 183.898 53.952 183.898 49.024H205.018ZM183.898 43.648C184.922 39.104 187.738 36.224 192.41 36.224C196.57 36.224 199.77 39.36 200.282 43.648H183.898ZM217.582 56.512C217.582 62.016 220.398 64.832 227.182 64.832C231.662 64.832 233.966 63.36 233.966 60.672C233.966 58.688 232.75 57.536 230.702 57.536H229.358C227.694 57.536 226.926 56.768 226.926 55.36V36.672H229.742C232.494 36.672 233.966 35.84 233.966 33.6C233.966 31.36 232.494 30.528 229.742 30.528H226.926V24.832C226.926 21.76 225.07 20.16 222.254 20.16C219.438 20.16 217.582 21.76 217.582 24.832V30.528H215.982C213.358 30.528 212.27 31.552 212.27 33.6C212.27 35.648 213.358 36.672 215.982 36.672H217.582V56.512Z" fill="#B1E5A4"/>
<path d="M217.644 56.512C217.644 62.016 220.46 64.832 227.244 64.832C231.724 64.832 234.028 63.36 234.028 60.672C234.028 58.688 232.812 57.536 230.764 57.536H229.42C227.756 57.536 226.988 56.768 226.988 55.36V36.672H229.804C232.556 36.672 234.028 35.84 234.028 33.6C234.028 31.36 232.556 30.528 229.804 30.528H226.988V24.832C226.988 21.76 225.132 20.16 222.316 20.16C219.5 20.16 217.644 21.76 217.644 24.832V30.528H216.044C213.42 30.528 212.332 31.552 212.332 33.6C212.332 35.648 213.42 36.672 216.044 36.672H217.644V56.512ZM237.428 40.128C237.428 46.4 241.652 48.64 247.092 49.984L252.596 51.328C255.924 52.16 257.972 52.544 257.972 54.912C257.972 56.832 255.86 58.304 252.532 58.304C245.62 58.304 245.236 52.544 241.204 52.544C238.58 52.544 237.428 54.4 237.428 56.448C237.428 61.056 244.468 64.832 252.916 64.832C259.956 64.832 267.316 61.312 267.316 53.696C267.316 47.168 260.98 44.928 255.668 43.712L251.764 42.816C248.884 42.176 246.772 41.664 246.772 39.488C246.772 37.504 248.884 36.608 252.148 36.608C258.036 36.608 258.164 40.896 261.812 40.896C264.244 40.896 265.716 38.976 265.716 36.8C265.716 32.512 258.548 29.696 251.444 29.696C244.98 29.696 237.428 32.512 237.428 40.128Z" fill="white"/>
<path d="M206.544 67.2C206.544 70.08 208.912 72.448 211.792 72.448C214.672 72.448 217.04 70.08 217.04 67.2C217.04 64.32 214.672 61.952 211.792 61.952C208.912 61.952 206.544 64.32 206.544 67.2Z" fill="white"/>
<path d="M64.544 22.2C64.544 25.08 66.912 27.448 69.792 27.448C72.672 27.448 75.04 25.08 75.04 22.2C75.04 19.32 72.672 16.952 69.792 16.952C66.912 16.952 64.544 19.32 64.544 22.2Z" fill="white"/>
</svg>
