<svg width="80" height="80" viewBox="0 0 80 80" fill="none" xmlns="http://www.w3.org/2000/svg">
<rect width="80" height="80" fill="#171A24"/>
<path d="M22.864 59.584C22.864 62.72 24.912 64.832 28.112 64.832C31.312 64.832 33.36 62.72 33.36 59.584V49.152L39.12 43.392L51.216 62.08C52.624 64.32 53.776 64.832 55.888 64.832C58.384 64.832 61.264 63.68 61.264 59.776C61.264 58.432 60.24 57.088 59.28 55.616L46.544 36.224L57.296 24.896C58.192 24 59.024 22.912 59.024 21.312C59.024 18.624 56.528 17.088 54.032 17.088C52.176 17.088 51.088 18.112 49.872 19.392L33.36 37.568V22.336C33.36 19.2 31.312 17.088 28.112 17.088C24.912 17.088 22.864 19.2 22.864 22.336V59.584Z" fill="#B1E5A4"/>
</svg>
